# AST/ASF file generated using VICON BodyLanguage
# -----------------------------------------------
:version 1.10
:name VICON
:units
  mass 1.0
  length 0.45
  angle deg
:documentation
   .ast/.asf automatically generated from VICON data using
   VICON BodyBuilder and BodyLanguage model FoxedUp or BRILLIANT.MOD
:root
   order TX TY TZ RX RY RZ
   axis XYZ
   position 0 0 0  
   orientation 0 0 0 
:bonedata
  begin
     id 1 
     name lhipjoint
     direction 0.561001 -0.76473 0.316963 
     length 2.4722 
     axis 0 0 0  XYZ
  end
  begin
     id 2 
     name lfemur
     direction 0.34202 -0.939693 0  
     length 7.59403  
     axis 0 0 20  XYZ
    dof rx ry rz
    limits (-160.0 20.0)
           (-70.0 70.0)
           (-60.0 70.0)
  end
  begin
     id 3 
     name ltibia
     direction 0.34202 -0.939693 0   
     length 7.89655   
     axis 0 0 20   XYZ
    dof rx
    limits (-10.0 170.0)
  end
  begin
     id 4 
     name lfoot
     direction 0.061296 -0.168409 0.98381   
     length 2.73287   
     axis -90 7.62852e-016 20   XYZ
    dof rx rz
    limits (-45.0 90.0)
           (-70.0 20.0)
  end
  begin
     id 5 
     name ltoes
     direction 1.53547e-011 -4.21984e-011 1   
     length 1.37057   
     axis -90 7.62852e-016 20   XYZ
    dof rx
    limits (-90.0 20.0)
  end
  begin
     id 6 
     name rhipjoint
     direction -0.559611 -0.765599 0.317323   
     length 2.46939  
     axis 0 0 0  XYZ 
  end
  begin
     id 7 
     name rfemur
     direction -0.34202 -0.939693 0   
     length 7.53712   
     axis 0 0 -20   XYZ
    dof rx ry rz
    limits (-160.0 20.0)
           (-70.0 70.0)
           (-70.0 60.0)
  end
  begin
     id 8 
     name rtibia
     direction -0.34202 -0.939693 0   
     length 8.12549   
     axis 0 0 -20   XYZ
    dof rx
    limits (-10.0 170.0)
 end
 begin
     id 9 
     name rfoot
     direction -0.066984 -0.184037 0.980634   
     length 2.67541  
     axis -90 -7.62852e-016 -20   XYZ
    dof rx rz
    limits (-45.0 90.0)
           (-20.0 70.0)
  end
  begin
     id 10 
     name rtoes
     direction -1.53549e-011 -4.21786e-011 1   
     length 1.34085   
     axis -90 -7.62852e-016 -20   XYZ
    dof rx
    limits (-90.0 20.0)
  end
  begin
     id 11 
     name lowerback
     direction -0.0522728 0.992594 -0.109658   
     length 2.05633   
     axis 0 0 0   XYZ
    dof rx ry rz
    limits (-20.0 45.0)
           (-30.0 30.0)
           (-30.0 30.0)
  end
  begin
     id 12 
     name upperback
     direction 0.00589338 0.999977 0.00335704   
     length 2.05845   
     axis 0 0 0   XYZ
    dof rx ry rz
    limits (-20.0 45.0)
           (-30.0 30.0)
           (-30.0 30.0)
  end
  begin
     id 13 
     name thorax
     direction 0.0292928 0.998059 0.0549487   
     length 2.09281   
     axis 0 0 0   XYZ
    dof rx ry rz
    limits (-20.0 45.0)
           (-30.0 30.0)
           (-30.0 30.0)
  end
  begin
     id 14 
     name lowerneck
     direction 0.0356368 0.980775 0.191858   
     length 1.84767   
     axis 0 0 0   XYZ
    dof rx ry rz
    limits (-20.0 45.0)
           (-30.0 30.0)
           (-30.0 30.0)
  end
  begin
     id 15 
     name upperneck
     direction -0.0227605 0.98931 -0.14404   
     length 1.89582   
     axis 0 0 0   XYZ
    dof rx ry rz
    limits (-20.0 45.0)
           (-30.0 30.0)
           (-30.0 30.0)
  end
  begin
     id 16
     name head
     direction -0.00932985 0.997511 -0.0698904  
     length 1.90213  
     axis 0 0 0   XYZ
    dof rx ry rz
    limits (-20.0 45.0)
           (-30.0 30.0)
           (-30.0 30.0)
  end
  begin
     id 17 
     name lclavicle
     direction 0.873442 0.479511 0.0846686  
     length 3.41193  
     axis 0 0 0   XYZ
    dof ry rz
    limits (-20.0 10.0)
           (0.0 20.0)
  end
  begin
     id 18 
     name lhumerus
     direction 1 -4.4897e-011 -5.62117e-018   
     length 5.59864   
     axis 180 -30 -90   XYZ
    dof rx ry rz
    limits (-60.0 90.0)
           (-90.0 90.0)
           (-90.0 90.0)
  end
  begin
     id 19
     name lradius
     direction 1 -4.48966e-011 -6.26295e-027   
     length 3.59542   
     axis 180 -30 -90   XYZ
    dof rx
    limits (-10.0 170.0)
  end
  begin
     id 20
     name lwrist
     direction 1 -4.48947e-011 -1.74096e-026   
     length 1.79771   
     axis 1.04567e-014 90 90   XYZ
    dof ry
    limits (-180.0 0.0)
 end
  begin
     id 21 
     name lhand
     direction 1 -4.49085e-011 -3.48469e-026   
     length 0.572014   
     axis 2.22196e-014 90 90   XYZ
    dof rx rz
    limits (-90.0 90.0)
           (-45.0 45.0)
  end
  begin
     id 22 
     name lfingers
     direction 1 -4.48884e-011 -6.96135e-026   
     length 0.461173   
     axis 4.44383e-014 90 90   XYZ
    dof rx
    limits (0.0 90.0)
  end
  begin
     id 23
     name lthumb
     direction 0.707107 -6.34976e-011 0.707107   
     length 0.662154   
     axis -90 45 -5.4397e-014   XYZ
    dof rx rz
    limits (-45.0 45.0)
           (-45.0 45.0)
  end
  begin
     id 24 
     name rclavicle
     direction -0.890242 0.443271 0.104786   
     length 3.46753  
     axis 0 0 0   XYZ 
    dof ry rz
    limits (-10.0 20.0)
           (-20.0 0.0)
  end
  begin
     id 25 
     name rhumerus
     direction -1 -4.48963e-011 -5.41723e-018  
     length 5.8094   
     axis 180 30 90   XYZ
    dof rx ry rz
    limits (-90.0 60.0)
           (-90.0 90.0)
           (-90.0 90.0)
  end
  begin
     id 26 
     name rradius
     direction -1 -4.48958e-011 -6.51059e-027   
     length 3.66953   
     axis 180 30 90   XYZ
    dof rx
    limits (-10.0 170.0)
  end
  begin
     id 27 
     name rwrist
     direction -1 -4.48975e-011 -1.74124e-026   
     length 1.83476   
     axis 1.04567e-014 -90 -90   XYZ
    dof ry
    limits (-180.0 0.0)
  end
  begin
     id 28
     name rhand
     direction -1 -4.49013e-011 -3.48326e-026   
     length 0.57843   
     axis 2.22196e-014 -90 -90   XYZ
    dof rx rz
    limits (-90.0 90.0)
           (-45.0 45.0)
  end
  begin
     id 29
     name rfingers
     direction -1 -4.49023e-011 -6.9669e-026   
     length 0.466345   
     axis 4.44383e-014 -90 -90   XYZ
    dof rx
    limits (0.0 90.0)
  end
  begin
     id 30
     name rthumb
     direction -0.707107 -6.34926e-011 0.707107   
     length 0.669581   
     axis -90 -45 5.4397e-014   XYZ
    dof rx rz
    limits (-45.0 45.0)
           (-45.0 45.0)
  end
:hierarchy
  begin
    root lhipjoint rhipjoint lowerback
    lhipjoint lfemur
    lfemur ltibia
    ltibia lfoot
    lfoot ltoes
    rhipjoint rfemur
    rfemur rtibia
    rtibia rfoot
    rfoot rtoes
    lowerback upperback
    upperback thorax
    thorax lowerneck lclavicle rclavicle
    lowerneck upperneck
    upperneck head
    lclavicle lhumerus
    lhumerus lradius
    lradius lwrist
    lwrist lhand lthumb
    lhand lfingers
    rclavicle rhumerus
    rhumerus rradius
    rradius rwrist
    rwrist rhand rthumb
    rhand rfingers
  end

#!OML:ASF H:\SkateBoarding\Project 1\Capture day 1\Session 1\Skater.ASF
:FULLY-SPECIFIED
:DEGREES
174
root 0.513179 18.6247 0.844558 -4.10147 21.7207 -0.643162
lowerback 8.38231 -1.27814 -3.5002
upperback -0.191248 -2.03878 0.13166
thorax -4.77638 -0.920772 2.35484
lowerneck -14.3797 -0.307032 1.9473
upperneck 33.248 -1.0049 0.39384
head 13.6377 -0.0761671 -0.32727
rclavicle 9.01023e-014 -2.78299e-015
rhumerus -32.6492 -2.69862 -87.1443
rradius 34.2596
rwrist -9.37019
rhand -28.7858 -10.7141
rfingers 7.12502
rthumb -2.14487 -40.6831
lclavicle 9.01023e-014 -2.78299e-015
lhumerus -31.2408 -3.44241 92.0573
lradius 28.9182
lwrist 16.2148
lhand -20.9364 13.9998
lfingers 7.12502
lthumb 5.43572 43.9101
rfemur -28.6223 6.10588 12.6265
rtibia 51.7042
rfoot -11.6443 15.8616
rtoes -0.756539
lfemur -0.650009 -24.4922 -20.8194
ltibia 22.3148
lfoot -20.5028 1.11043
ltoes -15.2205
175
root 0.514817 18.6216 0.874161 -4.03069 21.6988 -0.627335
lowerback 8.41929 -1.28579 -3.5054
upperback -0.168557 -2.04892 0.161708
thorax -4.77152 -0.925668 2.391
lowerneck -14.3789 -0.341798 1.8898
upperneck 33.2869 -1.04524 0.408911
head 13.6545 -0.098567 -0.317603
rclavicle 3.9934e-014 -2.04748e-014
rhumerus -32.4632 -2.53559 -87.2156
rradius 34.3531
rwrist -9.4762
rhand -28.8772 -10.5282
rfingers 7.12502
rthumb -2.23315 -40.4962
lclavicle 3.9934e-014 -2.04748e-014
lhumerus -31.3324 -3.55749 92.164
lradius 28.8761
lwrist 16.2341
lhand -20.8901 14.0398
lfingers 7.12502
lthumb 5.48043 43.9489
rfemur -28.7092 6.09357 12.6125
rtibia 51.7845
rfoot -11.6622 15.9294
rtoes -0.768936
lfemur -0.526219 -24.58 -20.8364
ltibia 22.1908
lfoot -20.6837 1.1182
ltoes -15.1875
176
root 0.516511 18.6184 0.902794 -3.96108 21.6678 -0.60717
lowerback 8.45296 -1.29189 -3.51871
upperback -0.144781 -2.05777 0.189333
thorax -4.76355 -0.929847 2.42892
lowerneck -14.366 -0.378246 1.84329
upperneck 33.3075 -1.08496 0.406638
head 13.6604 -0.12203 -0.316618
rclavicle 7.45644e-014 -2.38542e-015
rhumerus -32.2842 -2.3965 -87.2812
rradius 34.4172
rwrist -9.53103
rhand -28.9023 -10.4423
rfingers 7.12502
rthumb -2.25735 -40.4101
lclavicle 7.45644e-014 -2.38542e-015
lhumerus -31.42 -3.68053 92.2731
lradius 28.8206
lwrist 16.2381
lhand -20.8533 14.0934
lfingers 7.12502
lthumb 5.51594 44.0016
rfemur -28.7952 6.07294 12.595
rtibia 51.8646
rfoot -11.6655 16.0076
rtoes -0.772164
lfemur -0.400929 -24.6393 -20.8541
ltibia 22.0599
lfoot -20.8448 1.11161
ltoes -15.1639
177
root 0.518222 18.6153 0.930649 -3.89496 21.6215 -0.587507
lowerback 8.48276 -1.29447 -3.53543
upperback -0.121057 -2.06221 0.2147
thorax -4.7537 -0.931845 2.46577
lowerneck -14.3453 -0.412365 1.80788
upperneck 33.3163 -1.11934 0.390104
head 13.6593 -0.143931 -0.322374
rclavicle 2.08879e-014 -5.76476e-015
rhumerus -32.1153 -2.27198 -87.3488
rradius 34.4469
rwrist -9.55389
rhand -28.9377 -10.3419
rfingers 7.12502
rthumb -2.29152 -40.3093
lclavicle 2.08879e-014 -5.76476e-015
lhumerus -31.5026 -3.80095 92.3792
lradius 28.7468
lwrist 16.2171
lhand -20.8248 14.1442
lfingers 7.12502
lthumb 5.54354 44.0517
rfemur -28.8795 6.05501 12.5805
rtibia 51.943
rfoot -11.6586 16.0925
rtoes -0.775239
lfemur -0.272345 -24.6821 -20.8712
ltibia 21.9256
lfoot -21.0011 1.10605
ltoes -15.1542
178
root 0.52001 18.6123 0.957568 -3.82905 21.5617 -0.567236
lowerback 8.51051 -1.29463 -3.55422
upperback -0.100022 -2.06377 0.237574
thorax -4.74572 -0.932326 2.50083
lowerneck -14.3196 -0.443636 1.77812
upperneck 33.3185 -1.14719 0.36246
head 13.654 -0.163918 -0.332487
rclavicle 3.6602e-014 -4.37326e-015
rhumerus -31.954 -2.15945 -87.416
rradius 34.4504
rwrist -9.56205
rhand -28.978 -10.2589
rfingers 7.12502
rthumb -2.33045 -40.226
lclavicle 3.6602e-014 -4.37326e-015
lhumerus -31.5807 -3.91072 92.4799
lradius 28.6519
lwrist 16.1643
lhand -20.7997 14.1979
lfingers 7.12502
lthumb 5.56773 44.1047
rfemur -28.9652 6.03029 12.5672
rtibia 52.0195
rfoot -11.6338 16.1871
rtoes -0.774453
lfemur -0.144127 -24.7252 -20.8913
ltibia 21.7926
lfoot -21.1635 1.11231
ltoes -15.1488
179
root 0.521813 18.6095 0.983569 -3.76431 21.487 -0.554266
lowerback 8.53286 -1.29258 -3.56892
upperback -0.0798404 -2.0618 0.260508
thorax -4.73597 -0.931202 2.53307
lowerneck -14.3023 -0.468935 1.74426
upperneck 33.3227 -1.16502 0.334209
head 13.6517 -0.180116 -0.340592
rclavicle 1.28445e-014 7.15625e-015
rhumerus -31.7948 -2.06416 -87.482
rradius 34.4259
rwrist -9.55085
rhand -29.0142 -10.1917
rfingers 7.12502
rthumb -2.36546 -40.1583
lclavicle 1.28445e-014 7.15625e-015
lhumerus -31.6508 -4.0079 92.575
lradius 28.5389
lwrist 16.0773
lhand -20.7769 14.2516
lfingers 7.12502
lthumb 5.58973 44.1579
rfemur -29.0538 6.00791 12.5635
rtibia 52.0933
rfoot -11.5969 16.2871
rtoes -0.776115
lfemur -0.0206453 -24.7749 -20.9063
ltibia 21.6664
lfoot -21.3384 1.13342
ltoes -15.1427
180
root 0.523832 18.6066 1.00869 -3.69937 21.3966 -0.546288
lowerback 8.54894 -1.28919 -3.57904
upperback -0.0621946 -2.05741 0.283055
thorax -4.72568 -0.928989 2.5619
lowerneck -14.2868 -0.486433 1.71895
upperneck 33.3275 -1.16997 0.294572
head 13.6499 -0.191181 -0.352717
rclavicle 1.5692e-014 2.98177e-015
rhumerus -31.6404 -1.98388 -87.5478
rradius 34.37
rwrist -9.51281
rhand -29.0477 -10.1368
rfingers 7.12502
rthumb -2.39775 -40.1031
lclavicle 1.5692e-014 2.98177e-015
lhumerus -31.7154 -4.08763 92.6625
lradius 28.4073
lwrist 15.9664
lhand -20.7272 14.2625
lfingers 7.12502
lthumb 5.6377 44.1675
rfemur -29.1464 5.98235 12.5665
rtibia 52.1649
rfoot -11.5415 16.3968
rtoes -0.768036
lfemur 0.0973038 -24.8353 -20.9207
ltibia 21.5503
lfoot -21.5304 1.17286
ltoes -15.1372
181
root 0.526081 18.6037 1.03289 -3.63626 21.2888 -0.546068
lowerback 8.5626 -1.28211 -3.57939
upperback -0.0480985 -2.04725 0.303372
thorax -4.71856 -0.924066 2.58221
lowerneck -14.2795 -0.498021 1.68892
upperneck 33.3392 -1.16683 0.260207
head 13.6531 -0.198481 -0.360706
rclavicle 4.58591e-014 -2.18663e-015
rhumerus -31.4927 -1.92817 -87.6122
rradius 34.2846
rwrist -9.45342
rhand -29.089 -10.0716
rfingers 7.12502
rthumb -2.43768 -40.0374
lclavicle 4.58591e-014 -2.18663e-015
lhumerus -31.778 -4.1577 92.7413
lradius 28.2613
lwrist 15.8271
lhand -20.6633 14.275
lfingers 7.12502
lthumb 5.69939 44.1784
rfemur -29.2422 5.95563 12.5797
rtibia 52.234
rfoot -11.4664 16.516
rtoes -0.747078
lfemur 0.211693 -24.913 -20.9336
ltibia 21.4453
lfoot -21.7468 1.23541
ltoes -15.1299
182
root 0.528563 18.6009 1.05634 -3.57507 21.1643 -0.550361
lowerback 8.57224 -1.27238 -3.57618
upperback -0.0362142 -2.03315 0.322826
thorax -4.71193 -0.91725 2.59907
lowerneck -14.2766 -0.504916 1.64987
upperneck 33.3547 -1.15625 0.231857
head 13.6591 -0.202828 -0.363596
rclavicle 5.79504e-015 4.77083e-015
rhumerus -31.349 -1.8937 -87.6738
rradius 34.1664
rwrist -9.3604
rhand -29.1337 -9.99622
rfingers 7.12502
rthumb -2.48081 -39.9615
lclavicle 5.79504e-015 4.77083e-015
lhumerus -31.838 -4.21282 92.8127
lradius 28.1038
lwrist 15.6703
lhand -20.5941 14.2966
lfingers 7.12502
lthumb 5.76627 44.1981
rfemur -29.3381 5.93674 12.6002
rtibia 52.301
rfoot -11.3857 16.6384
rtoes -0.73032
lfemur 0.325046 -25.0035 -20.9483
ltibia 21.35
lfoot -21.9838 1.31811
ltoes -15.1222
183
root 0.531242 18.5982 1.07901 -3.51558 21.0277 -0.557328
lowerback 8.58137 -1.26221 -3.57004
upperback -0.0258082 -2.01825 0.340781
thorax -4.70676 -0.910081 2.61264
lowerneck -14.2754 -0.507253 1.62547
upperneck 33.3637 -1.13668 0.184166
head 13.6625 -0.204172 -0.375348
rclavicle -1.11583e-014 -1.31198e-014
rhumerus -31.2048 -1.88267 -87.733
rradius 34.015
rwrist -9.23803
rhand -29.1772 -9.90484
rfingers 7.12502
rthumb -2.52283 -39.8697
lclavicle -1.11583e-014 -1.31198e-014
lhumerus -31.8935 -4.2477 92.8739
lradius 27.9379
lwrist 15.4991
lhand -20.4964 14.2971
lfingers 7.12502
lthumb 5.86059 44.196
rfemur -29.4333 5.92276 12.6255
rtibia 52.3667
rfoot -11.3006 16.7636
rtoes -0.720314
lfemur 0.438576 -25.1064 -20.966
ltibia 21.2615
lfoot -22.237 1.41476
ltoes -15.0981
184
root 0.534107 18.5956 1.10099 -3.45742 20.8769 -0.561903
lowerback 8.5887 -1.24821 -3.56653
upperback -0.0168057 -1.99866 0.355136
thorax -4.70244 -0.90053 2.62334
lowerneck -14.2711 -0.508651 1.60467
upperneck 33.3664 -1.1154 0.132699
head 13.6624 -0.20494 -0.388943
rclavicle -2.96935e-014 -1.07344e-014
rhumerus -31.0659 -1.90215 -87.7872
rradius 33.837
rwrist -9.08873
rhand -29.2223 -9.80318
rfingers 7.12502
rthumb -2.5664 -39.7675
lclavicle -2.96935e-014 -1.07344e-014
lhumerus -31.9507 -4.27597 92.9283
lradius 27.7704
lwrist 15.3193
lhand -20.3969 14.311
lfingers 7.12502
lthumb 5.95666 44.2073
rfemur -29.5277 5.91934 12.6504
rtibia 52.4322
rfoot -11.2128 16.8897
rtoes -0.701398
lfemur 0.555821 -25.2155 -20.992
ltibia 21.175
lfoot -22.5013 1.52576
ltoes -15.0661
185
root 0.537121 18.593 1.12222 -3.39856 20.7168 -0.557709
lowerback 8.5986 -1.23224 -3.57137
upperback -0.00989095 -1.97766 0.364745
thorax -4.70174 -0.890026 2.63374
lowerneck -14.269 -0.506152 1.58491
upperneck 33.3631 -1.08787 0.0787835
head 13.6602 -0.203292 -0.402716
rclavicle 2.73841e-014 -3.97569e-015
rhumerus -30.9316 -1.9572 -87.8366
rradius 33.6329
rwrist -8.90348
rhand -29.2662 -9.69696
rfingers 7.12502
rthumb -2.60883 -39.6608
lclavicle 2.73841e-014 -3.97569e-015
lhumerus -32.0102 -4.28643 92.9728
lradius 27.6044
lwrist 15.1294
lhand -20.2862 14.3186
lfingers 7.12502
lthumb 6.06349 44.2119
rfemur -29.6219 5.92009 12.6673
rtibia 52.4989
rfoot -11.1224 17.0161
rtoes -0.684543
lfemur 0.676463 -25.3281 -21.0317
ltibia 21.0871
lfoot -22.7694 1.64822
ltoes -15.0247
186
root 0.540262 18.5905 1.1426 -3.33922 20.5466 -0.545884
lowerback 8.60972 -1.21408 -3.58419
upperback -0.00358903 -1.9548 0.370197
thorax -4.70241 -0.878426 2.64412
lowerneck -14.2623 -0.504988 1.56562
upperneck 33.3469 -1.06072 0.0200187
head 13.6512 -0.202623 -0.418504
rclavicle 2.46322e-014 6.95746e-015
rhumerus -30.8007 -2.04745 -87.8802
rradius 33.4076
rwrist -8.68723
rhand -29.3051 -9.59788
rfingers 7.12502
rthumb -2.64635 -39.5612
lclavicle 2.46322e-014 6.95746e-015
lhumerus -32.0731 -4.28704 93.0107
lradius 27.4478
lwrist 14.9408
lhand -20.1738 14.3368
lfingers 7.12502
lthumb 6.17205 44.2269
rfemur -29.7172 5.92889 12.6775
rtibia 52.568
rfoot -11.0336 17.1399
rtoes -0.67407
lfemur 0.800856 -25.4393 -21.0827
ltibia 20.995
lfoot -23.0371 1.77769
ltoes -14.9661
187
root 0.543403 18.5881 1.16222 -3.28047 20.3673 -0.52717
lowerback 8.62472 -1.19324 -3.60334
upperback 0.000378089 -1.92948 0.370094
thorax -4.70788 -0.865382 2.65213
lowerneck -14.2484 -0.503054 1.55512
upperneck 33.3168 -1.03195 -0.0472752
head 13.6346 -0.201497 -0.438885
rclavicle 5.9154e-015 0
rhumerus -30.6815 -2.18088 -87.9192
rradius 33.1691
rwrist -8.44464
rhand -29.3318 -9.52462
rfingers 7.12502
rthumb -2.67211 -39.4876
lclavicle 5.9154e-015 0
lhumerus -32.1426 -4.28037 93.0404
lradius 27.3022
lwrist 14.7576
lhand -20.0539 14.3529
lfingers 7.12502
lthumb 6.2878 44.2396
rfemur -29.8125 5.94865 12.6821
rtibia 52.6394
rfoot -10.951 17.2594
rtoes -0.672834
lfemur 0.928948 -25.5424 -21.1426
ltibia 20.8973
lfoot -23.2991 1.91183
ltoes -14.9069
